<svg width="16" height="16" viewBox="0 0 16 16" fill="none" xmlns="http://www.w3.org/2000/svg">
<path d="M3.33333 7.33301H8.66667V8.66634H3.33333V10.6663L0 7.99968L3.33333 5.33301V7.33301ZM2.66667 11.9997H4.472C5.24179 12.6786 6.19112 13.1209 7.20608 13.2736C8.22105 13.4264 9.25852 13.283 10.194 12.8607C11.1295 12.4384 11.9233 11.7551 12.48 10.8929C13.0368 10.0306 13.333 9.02606 13.333 7.99968C13.333 6.97329 13.0368 5.9687 12.48 5.10647C11.9233 4.24423 11.1295 3.56097 10.194 3.13867C9.25852 2.71638 8.22105 2.57299 7.20608 2.72572C6.19112 2.87844 5.24179 3.32079 4.472 3.99968H2.66667C3.28711 3.17113 4.09222 2.49868 5.01805 2.03577C5.94387 1.57286 6.9649 1.33223 8 1.33301C11.682 1.33301 14.6667 4.31768 14.6667 7.99968C14.6667 11.6817 11.682 14.6663 8 14.6663C6.9649 14.6671 5.94387 14.4265 5.01805 13.9636C4.09222 13.5007 3.28711 12.8282 2.66667 11.9997Z" fill="#8E8EA9"/>
</svg>
